# xmcd
#
# Track frame offsets: 
#        150
#        11239
#        23433
#        41091
#        51864
#        71412
#        87929
#        104423
#        114843
#        131302
#
# Disc length: 1924 seconds
#
# Revision: 0
# Processed by: cddbd v1.5.2PL0 Copyright (c) Steve Scherf et al.
# Submitted via: ExactAudioCopy v1.3
#
DISCID=7707820a
DTITLE=Charlie Daniels - Night Hawk
DYEAR=2016
DGENRE=Country
TTITLE0=Big Balls In Cowtown
TTITLE1=Billy the Kid
TTITLE2=Night Hawk
TTITLE3=Stay All Night (Stay a Little Longer)
TTITLE4=Goodnight Loving Trail
TTITLE5=(Ghost) Riders In the Sky: A Cowboy Legend
TTITLE6=Running with the Crowd
TTITLE7=Old Chisholm Trail
TTITLE8=Can't Beat the Damned Ole Machine
TTITLE9=Yippie Ki Yea
EXTD=
EXTT0=
EXTT1=
EXTT2=
EXTT3=
EXTT4=
EXTT5=
EXTT6=
EXTT7=
EXTT8=
EXTT9=
PLAYORDER=
